<?xml version="1.0" encoding="utf-8" ?><svg xmlns="http://www.w3.org/2000/svg" xmlns:xlink="http://www.w3.org/1999/xlink" width="616" height="578" viewBox="0 0 616 578"><clipPath id="cl_3"><rect width="616" height="578"/></clipPath><g clip-path="url(#cl_3)"><path fill="#F67516" transform="translate(-398 -102)" d="M486.74 135.348L594.685 135.297C618.263 157.839 641.546 180.688 664.527 203.838C665.105 223.904 664.057 244.649 664.611 264.788C664.838 273.053 664.976 283.046 664.424 291.247C647.475 316.593 628.733 341.091 611.567 366.298C601.715 380.767 589.293 393.354 584.515 410.56C580.965 423.346 577.421 436.07 574.097 448.924C577.961 456.826 581.956 464.663 586.079 472.432C607.248 435.922 629.651 396.906 651.629 360.914C663.962 356.874 680.855 352.994 693.672 349.651L768.86 330.03C778.611 319.984 814.562 277.045 818.494 266.198C821.593 257.651 822.681 248.029 824.24 239.084C826.744 224.724 829.113 210.348 832.255 196.111C843.523 212.908 852.487 230.455 864.188 247.433C871.638 233.473 879.594 213.169 885.861 198.292C892.332 215.954 900.277 241.163 907.856 257.595C917.278 264.763 928.529 269.752 937.53 277.52C947.731 286.325 970.831 327.856 979.301 341.637C947.889 386.164 943.179 375.614 895.042 380.251C890.353 396.017 878.45 425.481 870.395 439.891C868.815 442.718 862.283 448.554 859.67 450.93C862.397 463.636 865.2 476.325 868.078 488.998C870.552 501.355 873.265 513.662 876.215 525.914C881.837 525.773 887.713 525.824 893.359 525.788C899.598 532.809 906.119 542.676 911.41 550.571L941.213 550.584L941.249 561.907C924.387 561.78 907.523 561.764 890.661 561.859C881.326 568.623 866.885 582.015 857.648 589.989L795.474 643.562L777.817 643.659C789.473 632.791 801.608 622.824 813.825 612.61C801.192 612.6 732.169 610.843 725.007 613.919C712.62 619.238 691.804 635.555 678.999 643.502C646.411 644.363 612.977 643.467 580.396 643.684C567.492 643.769 544.843 642.841 532.53 644.248C547.004 636.85 620.552 607.825 626.662 602.051C632.64 596.402 637.019 586.247 641.151 579.123C630.534 570.936 611.509 554.28 599.855 549.12C585.847 542.919 567.148 540.234 552.026 536.835C546.377 535.565 539.007 534.79 534.077 531.724C528.402 528.195 480.863 467.13 474.627 458.343C473.974 443.258 472.513 370.927 476.166 360.066C479.434 350.348 486.927 341.023 492.331 332.342L520.999 286.086C510.867 276.064 499.448 266.459 489.039 256.398L429.056 284.433L429.083 192.303C445.499 174.11 468.924 152.405 486.74 135.348ZM652.624 582.063L645.034 594.863C650.48 592.367 680.908 578.81 683.54 576.898C699.216 565.511 720.177 542.182 734.756 527.8L727.248 469.259C719.931 465.298 677.427 441.402 672.817 440.631L596.788 484.643C623.422 499.307 656.124 517.046 681.909 533.041C672.061 549.33 662.299 565.671 652.624 582.063ZM869.833 275.247C863.071 285.076 856.369 294.946 849.726 304.856L830.142 285.071C831.007 300.598 831.596 316.139 831.908 331.688C843.096 344.003 856.838 358.214 868.703 369.949C883.649 369.248 898.588 368.387 913.516 367.368C934.894 366.796 936.789 367.82 954.607 355.246C951.547 349.615 947.552 342.696 945.048 336.935C950.939 337.154 957.591 337.546 963.419 337.395C954.819 323.373 941.1 299.397 931.03 287.529C924.422 279.741 899.879 265.736 888.988 264.06C882.629 263.081 872.652 260.516 865.742 259.108L869.833 275.247ZM607.902 281.765C601.294 292.005 593.927 302.703 587.605 312.962C595.537 309.615 605.516 305.07 613.426 302.151L653.724 285.053L653.679 209.2C635.492 191.151 614.554 169.313 595.958 152.344C593.959 164.198 591.785 176.021 589.439 187.811C588.117 194.811 586.359 202.004 586.136 209.145C585.729 222.134 602.58 266.92 607.902 281.765ZM530.07 455.486C544.967 471.883 559.953 488.2 575.028 504.434L590.186 520.805C586.581 508.153 582.736 493.395 577.722 481.453C573.354 471.05 566.47 460.174 561.788 449.853C565.636 434.325 570.675 417.292 575.188 401.93C578.296 391.35 589.923 376.537 596.557 367.25C606.799 353.01 616.97 338.718 627.068 324.376C628.625 322.131 641.187 304.542 640.686 303.31L640.289 303.24C619.912 311.365 593.314 320.615 574.607 332.546C571.978 334.223 567.386 343.299 565.572 346.093C560.954 355.482 552.697 363.781 548.768 373.32C544.042 384.798 542.804 397.653 539.857 409.654C536.656 424.906 533.146 440.261 530.07 455.486ZM486.104 451.019C492.401 450.963 515.565 451.347 519.365 449.987C521.996 436.369 525.552 421.059 528.55 407.511C530.895 396.913 535.027 374.661 539.665 366.071C546.537 353.341 557.261 339.49 564.945 326.614C554.881 317.544 538.522 303.467 529.486 294.127C523 304.398 486.839 359.628 486.525 365.974C485.609 384.486 485.781 430.682 486.104 451.019ZM682.872 432.672C700.621 441.984 721.126 452.199 738.083 462.361C738.724 467.804 739.327 473.251 739.892 478.701C741.357 490.393 742.753 503.995 744.833 515.448C757.142 507.689 769.543 500.079 782.034 492.617C776.409 487.985 767.951 481.274 763.109 476.112C763.459 465.464 767.164 352.749 765.233 350.664C747.704 367.799 730.274 385.036 712.945 402.374C703.281 412.028 692.005 422.802 682.872 432.672ZM497.446 248.856C505.03 256.047 569.066 316.273 571.486 316.456L571.577 316.424C579.387 304.309 587.295 292.257 595.299 280.269C588.327 259.554 580.993 238.488 574.946 217.51L520.204 205.837C513.222 219.961 504.971 234.926 497.446 248.856ZM658.793 371.239L623.251 431.424C617.099 441.84 607.62 456.73 602.362 467.266L602.769 467.97C615.365 461.237 627.672 453.876 640.041 446.732C649.749 441.124 659.883 435.783 668.984 429.237C675.526 424.532 751.039 350.301 751.672 347.452C751.703 347.312 751.692 347.166 751.701 347.023L751.361 346.744C731.099 351.495 710.934 356.651 690.879 362.21C682.068 364.574 666.665 368.243 658.793 371.239ZM440.45 197.146C440.364 220.191 440.65 243.765 440.343 266.754C445.532 264.162 450.764 261.656 456.036 259.235C463.984 255.653 483.911 247.813 487.976 241.569C496.314 228.761 503.58 212.68 511.289 199.229C507.928 192.492 490.098 155.036 487.207 151.193C471.58 166.213 455.404 181.512 440.45 197.146ZM777.599 473.431C804.839 496.752 831.892 520.289 858.756 544.042L866.37 550.714L898.31 550.552C895.608 547.041 890.864 540.535 887.963 537.578L867.208 537.392L841.155 496.458C836.754 489.577 829.046 478.158 825.578 471.195C826.783 454.148 828.112 439.821 828.133 422.683C810.986 439.516 794.552 456.543 777.599 473.431ZM574.886 205.773L576.312 196.887L585.572 146.444L498.46 146.475C505.594 161.675 514.484 179.077 521.049 194.211C537.339 197.562 559.111 201.487 574.886 205.773ZM754.86 592.583L761.19 600.457C763.776 602.028 818.726 601.394 826.572 601.384C832.443 596.732 870.296 565.306 870.959 562.065L868.713 561.948C857.215 563.525 841.44 568.637 829.951 571.784C805.119 578.584 779.889 586.601 754.86 592.583ZM871.205 381.096C862.652 385.575 847.609 402.325 840.504 409.757L838.033 455.921L844.488 449.682C850.288 444.197 859.341 436.389 862.93 429.582C870.886 414.488 876.824 396.798 882.751 380.801L871.205 381.096ZM661.719 632.503L675.505 632.447L705.86 612.595C682.054 612.525 657.27 612.121 633.543 612.65C618.258 619.128 603.04 625.761 587.891 632.549L661.719 632.503ZM858.652 375.636C850.023 367.15 827.296 344.912 820.536 335.963C820.352 329.79 820.127 290.08 817.98 287.402C805.755 303.243 793.157 320.011 779.979 334.99L828.236 391.334C830.438 393.783 832.74 396.445 834.988 398.821C842.766 390.981 850.655 383.252 858.652 375.636ZM892.989 253.275C891.39 246.723 888.483 235.697 884.441 230.143L876.265 249.722L887.372 252.195L892.989 253.275ZM491.706 462.081C506.758 481.195 523.769 503.896 539.535 522.091C549.872 524.637 576.833 531.99 586.338 533.154C564.201 510.668 542.493 483.973 520.838 461.997L491.706 462.081ZM837.727 227.973C835.658 241.76 833.098 255.469 830.053 269.074C833.757 272.94 844.146 284.314 848.275 286.343L848.684 286.224L857.233 273.049C853.947 257.749 849.097 239.622 837.727 227.973ZM692.921 586.05C684.101 588.575 666.367 597.51 657.775 601.629C675.939 600.939 695.504 601.292 713.797 601.316L746.63 601.402C742.657 596.436 738.413 590.889 734.339 586.076C721.603 585.998 705.445 585.499 692.921 586.05ZM594.736 496.638C610.609 550.454 602.625 534.982 646.905 569.367L654.655 556.589L666.308 537.1C650.285 527.675 634.169 518.41 617.961 509.307C613.15 506.592 599.293 498.456 594.736 496.638ZM777.539 350.327C777.009 385.848 776.437 424.638 774.887 460.064C782.445 452.329 792.422 442.842 799.441 435.072C808.629 425.69 817.929 416.417 827.339 407.257C817.426 395.836 807.604 384.337 797.872 372.761C792.551 366.499 783.556 355.611 777.539 350.327ZM788.795 571.813L804.225 567.341C820.511 562.922 836.756 558.353 852.958 553.635C839.436 542.471 826.078 531.111 812.889 519.556C807.293 514.657 796.581 504.613 791.014 500.468C786.992 502.994 782.998 505.565 779.033 508.179C778.506 515.817 778.086 523.751 777.413 531.353C766.97 541.742 755.669 552.367 745.505 562.833C756.473 562.505 767.446 562.381 778.419 562.462C782.415 565.582 785.16 568.278 788.795 571.813Z"/><path fill="#F67516" transform="translate(-398 -102)" d="M902.256 297.12C906.103 297.731 916.664 317.533 919.022 321.625L900.281 321.729L891.853 321.799C888.611 315.449 885.483 308.188 882.506 301.65C888.694 299.911 895.91 298.504 902.256 297.12Z"/></g></svg>